<?xml version="1.0" encoding="UTF-8" standalone="no"?>
<!-- Created with Inkscape (http://www.inkscape.org/) -->

<svg
   xmlns:dc="http://purl.org/dc/elements/1.1/"
   xmlns:cc="http://creativecommons.org/ns#"
   xmlns:rdf="http://www.w3.org/1999/02/22-rdf-syntax-ns#"
   xmlns:svg="http://www.w3.org/2000/svg"
   xmlns="http://www.w3.org/2000/svg"
   xmlns:sodipodi="http://sodipodi.sourceforge.net/DTD/sodipodi-0.dtd"
   xmlns:inkscape="http://www.inkscape.org/namespaces/inkscape"
   version="1.1"
   id="svg3767"
   width="750"
   height="750"
   viewBox="0 0 750 750"
   sodipodi:docname="mde.svg"
   inkscape:version="0.92.5 (2060ec1f9f, 2020-04-08)">
  <metadata
     id="metadata3773">
    <rdf:RDF>
      <cc:Work
         rdf:about="">
        <dc:format>image/svg+xml</dc:format>
        <dc:type
           rdf:resource="http://purl.org/dc/dcmitype/StillImage" />
        <dc:title></dc:title>
      </cc:Work>
    </rdf:RDF>
  </metadata>
  <defs
     id="defs3771" />
  <sodipodi:namedview
     pagecolor="#ffffff"
     bordercolor="#666666"
     borderopacity="1"
     objecttolerance="10"
     gridtolerance="10"
     guidetolerance="10"
     inkscape:pageopacity="0"
     inkscape:pageshadow="2"
     inkscape:window-width="1920"
     inkscape:window-height="1043"
     id="namedview3769"
     showgrid="false"
     inkscape:zoom="0.38985154"
     inkscape:cx="-452.9811"
     inkscape:cy="299.22885"
     inkscape:window-x="0"
     inkscape:window-y="0"
     inkscape:window-maximized="1"
     inkscape:current-layer="g3790" />
  <g
     id="g3790">
    <path
       style="fill:none;stroke:#4d4d4d;stroke-width:8;stroke-miterlimit:4;stroke-dasharray:none"
       d="M 345.75,747.59722 C 307.67193,744.87723 266.66042,734.89728 229.81665,719.38541 106.26263,667.36701 19.457095,552.07021 4.0366027,419.5 3.3968458,414 2.2268915,404.91607 1.4367042,399.31348 -0.39709795,386.31146 -0.40624423,363.49571 1.4173843,351.11933 2.1969457,345.8287 3.3632911,336.775 4.009263,331 9.4937489,281.9686 25.757201,232.50634 50.571907,189.38839 78.859632,140.23573 120.88473,95.179194 167,64.561877 217.84471,30.804539 272.9787,10.451352 331,4.0198637 c 33.97844,-4.22687329 56.75694,-3.46532274 88,-0.035081 24.8323,2.6998949 52.79318,8.9838553 76.5,17.1926913 12.24729,4.240804 28.80957,10.790597 29.85952,11.808378 0.47273,0.458251 -39.57727,1.038775 -89,1.290054 C 351.34705,34.708132 345.66393,34.848589 331,36.879834 304.16439,40.597099 286.5141,44.773534 262.2846,53.139362 155.04702,90.165758 71.654474,181.63838 44.97913,291.5 38.814913,316.88715 35.040957,347.76615 35.018399,373 34.98493,410.43898 43.112124,454.45568 56.713464,490.5 97.638021,598.95238 192.87712,680.2373 305.5,702.83499 c 42.31054,6.96707 76.91649,7.13488 112.65826,2.58129 83.65378,-10.73462 158.67803,-51.07104 213.74003,-114.91628 36.7174,-42.57439 63.27028,-96.47915 74.11216,-150.45443 6.46328,-32.17681 6.29733,-28.96341 6.71609,-130.04557 0.21077,-50.875 0.77206,-92.89104 1.24732,-93.36898 2.51863,-2.53285 17.93269,38.24318 24.89964,65.86898 14.90435,59.09971 14.91191,125.89331 0.0209,184.91115 -23.95546,94.94341 -85.20988,177.67268 -169.37481,228.75499 -25.80983,17.10277 -56.80271,27.09927 -81.76962,35.20851 -49.20461,14.55897 -93.61899,19.89854 -141.99997,16.22257 z M 293.73625,326.66375 c 3.22326,-6.5497 20.27259,-20.12973 28.53749,-23.69707 8.56904,-3.69861 16.55135,-9.063 77.11713,-9.063 -0.20737,11.14088 0.24463,24.65726 0.071,35.7987 0,0 -16.90729,-0.0922 -25.84854,-0.0922 -43.07755,0 -62.66008,17.24082 -62.66008,46.61454 0,40.80705 35.46778,49.84525 51.59635,49.84525 19.16556,0 33.59266,-14.78994 37.48157,-21.52573 6.96859,-12.06996 8.94901,-8.40391 7.94434,-91.54429 l -0.83588,-69.17201 c 1.89031,-17.98538 18.0911,-26.73617 29.65193,-28.64175 8.03245,-1.19214 5.20351,-6.56296 6.02993,87.84599 0.52395,59.85578 -0.49082,87.68756 -1.27504,90.46689 -0.62062,2.19952 -1.91115,6.6739 -1.48233,7.10272 0.42883,0.42883 8.82322,-3.8366 16.43736,-6.6384 38.2869,-14.08851 83.58062,-24.70536 121.49849,-28.47925 19.85952,-1.97658 28.60822,-1.94753 29.39301,0.0976 1.05776,2.75648 0.6558,9.97683 -0.64301,11.55009 -0.8273,1.00212 -6.28208,2.27005 -16.13079,3.7495 -34.58757,5.19568 -71.83639,17.44112 -99.811,32.81259 l -7.6918,4.22648 -7.3082,-2.50361 c -8.05181,-2.75836 -36.81736,-11.4208 -36.81736,-11.4208 0,0 -21.32266,56.3118 -79.36056,56.3118 -24.74192,0 -46.25158,-12.76894 -47.56613,-14.32128 m 208.85261,13.12164 c -19.74602,-2.53377 -35.45548,-9.64988 -48.05592,-22.25031 -5.67036,-5.67037 -17.50867,-20.95709 -17.50867,-23.34697 0,-2.01427 7.35167,1.17777 17.14782,4.48908 4.88135,1.65 9.65123,3 10.59974,3 0.94852,0 4.95111,-1.86023 8.89465,-4.13386 l 7.17007,-4.13385 2.66777,2.13119 C 510.18634,421.5373 521.00425,425 533.5,425 c 13.48147,0 23.50833,-3.39898 31.60473,-10.71359 l 4.01462,-3.62696 4.19032,2.13556 c 10.21189,5.20438 24.2155,13.99199 24.48068,15.36222 0.44377,2.29307 -14.63902,16.10103 -22.21617,20.33841 -8.53151,4.77109 -16.57417,7.32636 -28.57418,9.07843 -10.54703,1.53992 -15.90789,2.83981 -26.08323,1.53413 z M 451.625,387.875 c -1.57697,-7.88487 0.37474,-26.09782 3.89798,-36.375 9.82169,-28.64958 32.90109,-47.14726 64.36438,-51.58678 26.15922,-3.69111 53.33035,6.72877 69.3915,26.61101 7.34392,9.09109 17.48238,31.04786 15.33008,33.20017 -0.31686,0.31685 -6.54599,0.91636 -13.84252,1.33225 -7.29653,0.41588 -14.94917,1.07246 -17.00586,1.45906 -3.13211,0.58875 -3.83279,0.40094 -4.31424,-1.1564 -1.7589,-5.68943 -6.04675,-13.0869 -10.09311,-17.41279 -8.3484,-8.92511 -21.3265,-13.02427 -35.16415,-11.10667 -16.04604,2.22363 -28.53278,12.18788 -33.14451,26.44885 -2.16378,6.6911 -2.102,6.70722 25.82789,6.74171 13.89368,0.0171 45.93728,-1.12527 45.09105,-0.6498 -0.825,0.46355 -27.06349,3.11748 -31.46349,4.03617 -19.24683,4.01859 -43.70246,10.72011 -64,17.53777 -6.6,2.21685 -12.50625,4.03397 -13.125,4.03804 -0.61875,0.004 -1.40625,-1.39884 -1.75,-3.11759 z"
       id="path3796"
       inkscape:connector-curvature="0"
       sodipodi:nodetypes="csssssssccscssssssccssscssccccsccsscssccssscsscsscscccscsssccssccccssssssscascsssccsscss" />
    <path
       style="fill:none;stroke:#4d4d4d;stroke-width:8;stroke-miterlimit:4;stroke-dasharray:none"
       d="m 312.06413,445.98651 c -22.86504,-16.62617 -31.63898,-43.54266 -34.1978,-62.50526 -1.3723,-10.16965 -3.24772,-22.07504 -8.63619,-30.42155 -2.14509,-3.22226 -5.50488,-6.12639 -9.80904,-6.3146 -17.76366,0.0913 -12.35895,15.07908 -12.35895,69.97648 -1.19823,0 -32.22066,-0.31262 -33.56477,-0.31262 0,-53.60531 0.1743,-71.73516 -18.01718,-70.50124 -9.576,-0.35314 -18.06268,6.5121 -16.10008,87.23533 -2.95361,9.57667 -20.75499,25.24393 -32.34952,26.11993 -3.52068,0.266 -3.13194,3.49476 -3.13194,-62.82865 0,-35.87247 0.72958,-55.42004 13.4155,-72.30909 10.49942,-13.9781 60.04673,-28.32862 68.53307,-28.49774 8.48634,-0.16912 54.02229,15.67461 64.5883,27.97521 16.09219,19.15235 20.23494,31.13014 20.8299,61.65188"
       id="path3796-3-6"
       inkscape:connector-curvature="0"
       sodipodi:nodetypes="csccccccscszcc" />
  </g>
</svg>
